#Comment line ignore any data following # character 
#Hierarchical Translation and Rotation (.htr) file 
[Header]	
#Header keywords are followed by a single value 
FileType HTR		#Single word string
DataType HTRS		#Translation followed by rotation and scale data
FileVersion 1		#integer
NumSegments 84		#integer
NumFrames 2		#integer
DataFrameRate 30		#integer, data frame rate in this file
EulerRotationOrder ZYX
CalibrationUnits mm
RotationUnits Degrees
GlobalAxisofGravity Y
BoneLengthAxis Y
ScaleFactor 1.00
[SegmentNames&Hierarchy]
#CHILD	PARENT
MASTER GLOBAL
root MASTER
chest root
L_mid_tent01 root
R_mid_tent01 root
spine01 root
Bip01_Neck chest
L_humerus chest
R_humerus chest
weapon_bone chest
Bip01_Head Bip01_Neck
eye_left_bone Bip01_Head
eye_right_bone Bip01_Head
L_forearm L_humerus
L_front_hand L_forearm
L_weapon_bone L_forearm
L_front_hand01_01 L_front_hand
L_front_hand02_01 L_front_hand
L_front_hand03_01 L_front_hand
L_front_hand01_02 L_front_hand01_01
L_front_hand02_02 L_front_hand02_01
L_front_hand03_02 L_front_hand03_01
R_forearm R_humerus
R_front_hand R_forearm
R_weapon_bone R_forearm
R_front_hand01_01 R_front_hand
R_front_hand02_01 R_front_hand
R_front_hand03_01 R_front_hand
R_front_hand01_02 R_front_hand01_01
R_front_hand02_02 R_front_hand02_01
R_front_hand03_02 R_front_hand03_01
null_rope01_connect L_mid_tent01
Rope1_Seg01 null_rope01_connect
Rope1_Seg02 Rope1_Seg01
Rope1_Seg03 Rope1_Seg02
Rope1_Seg04 Rope1_Seg03
Rope1_Seg05 Rope1_Seg04
Rope1_Seg06 Rope1_Seg05
Rope1_Seg07 Rope1_Seg06
Rope1_Seg09 Rope1_Seg07
L_mid_hand01 Rope1_Seg09
L_mid_hand02 Rope1_Seg09
L_mid_hand03 Rope1_Seg09
null_rope02_connect R_mid_tent01
Rope2_Seg01 null_rope02_connect
Rope2_Seg02 Rope2_Seg01
Rope2_Seg03 Rope2_Seg02
Rope2_Seg04 Rope2_Seg03
Rope2_Seg05 Rope2_Seg04
Rope2_Seg06 Rope2_Seg05
Rope2_Seg07 Rope2_Seg06
Rope2_Seg09 Rope2_Seg07
R_mid_hand01 Rope2_Seg09
R_mid_hand02 Rope2_Seg09
R_mid_hand03 Rope2_Seg09
spine02 spine01
spine03 spine02
pelvis spine03
null_rope03_connect pelvis
null_rope04_connect pelvis
Rope3_Seg01 null_rope03_connect
Rope3_Seg02 Rope3_Seg01
Rope3_Seg03 Rope3_Seg02
Rope3_Seg04 Rope3_Seg03
Rope3_Seg05 Rope3_Seg04
Rope3_Seg06 Rope3_Seg05
Rope3_Seg07 Rope3_Seg06
Rope3_Seg08 Rope3_Seg07
Rope3_Seg09 Rope3_Seg08
R_rear_hand01 Rope3_Seg09
R_rear_hand02 Rope3_Seg09
R_rear_hand03 Rope3_Seg09
Rope4_Seg01 null_rope04_connect
Rope4_Seg02 Rope4_Seg01
Rope4_Seg03 Rope4_Seg02
Rope4_Seg04 Rope4_Seg03
Rope4_Seg05 Rope4_Seg04
Rope4_Seg06 Rope4_Seg05
Rope4_Seg07 Rope4_Seg06
Rope4_Seg08 Rope4_Seg07
Rope4_Seg09 Rope4_Seg08
L_rear_hand01 Rope4_Seg09
L_rear_hand02 Rope4_Seg09
L_rear_hand03 Rope4_Seg09
[BasePosition]
#SegmentName Tx, Ty, Tz, Rx, Ry, Rz, BoneLength
MASTER 0.000000 0.000000 0.000000 -90.000000 0.000000 0.000000 10.000000 
root 0.000000 0.000000 0.000000 0.000000 0.000000 0.000000 10.000000 
chest 0.000000 0.000000 0.000000 0.000000 0.000000 0.000000 10.000000 
L_mid_tent01 0.000000 0.000000 0.000000 0.000000 0.000000 0.000000 10.000000 
R_mid_tent01 0.000000 0.000000 0.000000 0.000000 0.000000 0.000000 10.000000 
spine01 0.000000 0.000000 0.000000 0.000000 0.000000 0.000000 10.000000 
Bip01_Neck 0.000000 0.000000 0.000000 0.000000 0.000000 0.000000 10.000000 
L_humerus 0.000000 0.000000 0.000000 0.000000 0.000000 0.000000 10.000000 
R_humerus 0.000000 0.000000 0.000000 0.000000 0.000000 0.000000 10.000000 
weapon_bone 0.000000 0.000000 0.000000 0.000000 0.000000 0.000000 10.000000 
Bip01_Head 0.000000 0.000000 0.000000 0.000000 0.000000 0.000000 10.000000 
eye_left_bone 0.000000 0.000000 0.000000 0.000000 0.000000 0.000000 10.000000 
eye_right_bone 0.000000 0.000000 0.000000 0.000000 0.000000 0.000000 10.000000 
L_forearm 0.000000 0.000000 0.000000 0.000000 0.000000 0.000000 10.000000 
L_front_hand 0.000000 0.000000 0.000000 0.000000 0.000000 0.000000 10.000000 
L_weapon_bone 0.000000 0.000000 0.000000 0.000000 0.000000 0.000000 10.000000 
L_front_hand01_01 0.000000 0.000000 0.000000 0.000000 0.000000 0.000000 10.000000 
L_front_hand02_01 0.000000 0.000000 0.000000 0.000000 0.000000 0.000000 10.000000 
L_front_hand03_01 0.000000 0.000000 0.000000 0.000000 0.000000 0.000000 10.000000 
L_front_hand01_02 0.000000 0.000000 0.000000 0.000000 0.000000 0.000000 10.000000 
L_front_hand02_02 0.000000 0.000000 0.000000 0.000000 0.000000 0.000000 10.000000 
L_front_hand03_02 0.000000 0.000000 0.000000 0.000000 0.000000 0.000000 10.000000 
R_forearm 0.000000 0.000000 0.000000 0.000000 0.000000 0.000000 10.000000 
R_front_hand 0.000000 0.000000 0.000000 0.000000 0.000000 0.000000 10.000000 
R_weapon_bone 0.000000 0.000000 0.000000 0.000000 0.000000 0.000000 10.000000 
R_front_hand01_01 0.000000 0.000000 0.000000 0.000000 0.000000 0.000000 10.000000 
R_front_hand02_01 0.000000 0.000000 0.000000 0.000000 0.000000 0.000000 10.000000 
R_front_hand03_01 0.000000 0.000000 0.000000 0.000000 0.000000 0.000000 10.000000 
R_front_hand01_02 0.000000 0.000000 0.000000 0.000000 0.000000 0.000000 10.000000 
R_front_hand02_02 0.000000 0.000000 0.000000 0.000000 0.000000 0.000000 10.000000 
R_front_hand03_02 0.000000 0.000000 0.000000 0.000000 0.000000 0.000000 10.000000 
null_rope01_connect 0.000000 0.000000 0.000000 0.000000 0.000000 0.000000 10.000000 
Rope1_Seg01 0.000000 0.000000 0.000000 0.000000 0.000000 0.000000 10.000000 
Rope1_Seg02 0.000000 0.000000 0.000000 0.000000 0.000000 0.000000 10.000000 
Rope1_Seg03 0.000000 0.000000 0.000000 0.000000 0.000000 0.000000 10.000000 
Rope1_Seg04 0.000000 0.000000 0.000000 0.000000 0.000000 0.000000 10.000000 
Rope1_Seg05 0.000000 0.000000 0.000000 0.000000 0.000000 0.000000 10.000000 
Rope1_Seg06 0.000000 0.000000 0.000000 0.000000 0.000000 0.000000 10.000000 
Rope1_Seg07 0.000000 0.000000 0.000000 0.000000 0.000000 0.000000 10.000000 
Rope1_Seg09 0.000000 0.000000 0.000000 0.000000 0.000000 0.000000 10.000000 
L_mid_hand01 0.000000 0.000000 0.000000 0.000000 0.000000 0.000000 10.000000 
L_mid_hand02 0.000000 0.000000 0.000000 0.000000 0.000000 0.000000 10.000000 
L_mid_hand03 0.000000 0.000000 0.000000 0.000000 0.000000 0.000000 10.000000 
null_rope02_connect 0.000000 0.000000 0.000000 0.000000 0.000000 0.000000 10.000000 
Rope2_Seg01 0.000000 0.000000 0.000000 0.000000 0.000000 0.000000 10.000000 
Rope2_Seg02 0.000000 0.000000 0.000000 0.000000 0.000000 0.000000 10.000000 
Rope2_Seg03 0.000000 0.000000 0.000000 0.000000 0.000000 0.000000 10.000000 
Rope2_Seg04 0.000000 0.000000 0.000000 0.000000 0.000000 0.000000 10.000000 
Rope2_Seg05 0.000000 0.000000 0.000000 0.000000 0.000000 0.000000 10.000000 
Rope2_Seg06 0.000000 0.000000 0.000000 0.000000 0.000000 0.000000 10.000000 
Rope2_Seg07 0.000000 0.000000 0.000000 0.000000 0.000000 0.000000 10.000000 
Rope2_Seg09 0.000000 0.000000 0.000000 0.000000 0.000000 0.000000 10.000000 
R_mid_hand01 0.000000 0.000000 0.000000 0.000000 0.000000 0.000000 10.000000 
R_mid_hand02 0.000000 0.000000 0.000000 0.000000 0.000000 0.000000 10.000000 
R_mid_hand03 0.000000 0.000000 0.000000 0.000000 0.000000 0.000000 10.000000 
spine02 0.000000 0.000000 0.000000 0.000000 0.000000 0.000000 10.000000 
spine03 0.000000 0.000000 0.000000 0.000000 0.000000 0.000000 10.000000 
pelvis 0.000000 0.000000 0.000000 0.000000 0.000000 0.000000 10.000000 
null_rope03_connect 0.000000 0.000000 0.000000 0.000000 0.000000 0.000000 10.000000 
null_rope04_connect 0.000000 0.000000 0.000000 0.000000 0.000000 0.000000 10.000000 
Rope3_Seg01 0.000000 0.000000 0.000000 0.000000 0.000000 0.000000 10.000000 
Rope3_Seg02 0.000000 0.000000 0.000000 0.000000 0.000000 0.000000 10.000000 
Rope3_Seg03 0.000000 0.000000 0.000000 0.000000 0.000000 0.000000 10.000000 
Rope3_Seg04 0.000000 0.000000 0.000000 0.000000 0.000000 0.000000 10.000000 
Rope3_Seg05 0.000000 0.000000 0.000000 0.000000 0.000000 0.000000 10.000000 
Rope3_Seg06 0.000000 0.000000 0.000000 0.000000 0.000000 0.000000 10.000000 
Rope3_Seg07 0.000000 0.000000 0.000000 0.000000 0.000000 0.000000 10.000000 
Rope3_Seg08 0.000000 0.000000 0.000000 0.000000 0.000000 0.000000 10.000000 
Rope3_Seg09 0.000000 0.000000 0.000000 0.000000 0.000000 0.000000 10.000000 
R_rear_hand01 0.000000 0.000000 0.000000 0.000000 0.000000 0.000000 10.000000 
R_rear_hand02 0.000000 0.000000 0.000000 0.000000 0.000000 0.000000 10.000000 
R_rear_hand03 0.000000 0.000000 0.000000 0.000000 0.000000 0.000000 10.000000 
Rope4_Seg01 0.000000 0.000000 0.000000 0.000000 0.000000 0.000000 10.000000 
Rope4_Seg02 0.000000 0.000000 0.000000 0.000000 0.000000 0.000000 10.000000 
Rope4_Seg03 0.000000 0.000000 0.000000 0.000000 0.000000 0.000000 10.000000 
Rope4_Seg04 0.000000 0.000000 0.000000 0.000000 0.000000 0.000000 10.000000 
Rope4_Seg05 0.000000 0.000000 0.000000 0.000000 0.000000 0.000000 10.000000 
Rope4_Seg06 0.000000 0.000000 0.000000 0.000000 0.000000 0.000000 10.000000 
Rope4_Seg07 0.000000 0.000000 0.000000 0.000000 0.000000 0.000000 10.000000 
Rope4_Seg08 0.000000 0.000000 0.000000 0.000000 0.000000 0.000000 10.000000 
Rope4_Seg09 0.000000 0.000000 0.000000 0.000000 0.000000 0.000000 10.000000 
L_rear_hand01 0.000000 0.000000 0.000000 0.000000 0.000000 0.000000 10.000000 
L_rear_hand02 0.000000 0.000000 0.000000 0.000000 0.000000 0.000000 10.000000 
L_rear_hand03 0.000000 0.000000 0.000000 0.000000 0.000000 0.000000 10.000000 
#Beginning of Data. Separated by tabs
#Fr	Tx	Ty	Tz	Rx	Ry	Rz	SF
[MASTER]
23 0.000000 0.000000 0.000000 0.001660 0.001660 0.001660 0.000000
24 0.000000 0.000000 0.000000 0.001660 0.001660 0.001660 0.000000
[root]
23 -16.502245 -199.343781 1093.534668 -85.747307 -61.785316 -93.080688 1111.678223
24 -16.502245 -199.343781 1093.534668 -85.747322 -61.785324 -93.080688 1111.678223
[chest]
23 -84.512650 -34.090519 0.000000 2.308097 -1.347975 -120.564369 91.129311
24 -84.512650 -34.090519 0.000000 2.302943 -1.336996 -120.438911 91.129311
[L_mid_tent01]
23 27.299500 22.177483 -249.917984 -16.782728 2.135604 132.063828 252.380859
24 27.299500 22.177483 -249.917984 -16.794888 2.128094 132.009308 252.380859
[R_mid_tent01]
23 23.228794 24.509907 226.238495 -175.121918 2.127695 120.970123 228.744751
24 23.228794 24.509907 226.238495 -175.117371 2.119816 120.952774 228.744751
[spine01]
23 -0.361383 -0.195265 0.000000 -0.000001 -0.000007 22.052340 0.410763
24 -0.361383 -0.195265 0.000000 -0.000001 -0.000007 22.052340 0.410763
[Bip01_Neck]
23 165.484543 71.581718 0.000119 175.896118 1.177290 24.871183 180.302734
24 165.484543 71.581718 0.000119 175.896118 1.177290 24.871180 180.302734
[L_humerus]
23 -13.983130 -135.272980 -120.471481 -91.668335 0.804969 -167.458282 181.680161
24 -13.983130 -135.272980 -120.471481 -91.668327 0.804969 -167.458282 181.680161
[R_humerus]
23 -13.983309 -135.273102 125.287651 103.000740 1.729733 -169.272232 184.909012
24 -13.983309 -135.273102 125.287651 103.000732 1.729733 -169.272232 184.909012
[weapon_bone]
23 235.964890 -300.705902 0.000000 0.000000 -89.951546 -128.212341 382.234833
24 235.964890 -300.705902 0.000000 0.000000 -89.951546 -128.212341 382.234833
[Bip01_Head]
23 102.819809 23.735470 5.410404 3.150731 3.423701 -20.839088 105.662476
24 102.819809 23.735470 5.410404 3.150731 3.423701 -20.839088 105.662476
[eye_left_bone]
23 -24.626970 125.451866 -64.772606 0.000000 -90.000000 -99.840431 143.318359
24 -24.626970 125.451866 -64.772606 0.000000 -90.000000 -99.840431 143.318359
[eye_right_bone]
23 -24.626970 125.451866 64.327362 0.000000 -89.960434 80.159386 143.117676
24 -24.626970 125.451866 64.327362 0.000000 -89.960434 80.159386 143.117676
[L_forearm]
23 322.776093 0.000000 -0.000119 0.000017 0.002347 -89.149834 322.776093
24 322.776093 0.000000 -0.000119 0.000017 0.002347 -89.149834 322.776093
[L_front_hand]
23 241.149185 -0.042021 -3.300071 -177.731644 -0.046009 -80.258369 241.171753
24 241.149185 -0.042021 -3.300071 -177.731354 -0.046492 -80.251312 241.171753
[L_weapon_bone]
23 156.183838 0.000000 0.000000 0.000014 0.000007 0.000001 156.183838
24 156.183838 0.000000 0.000000 0.000014 0.000007 0.000001 156.183838
[L_front_hand01_01]
23 86.095154 20.947098 -0.655860 0.405585 -0.442306 -4.620490 88.609184
24 86.095154 20.947098 -0.655860 0.405585 -0.442306 -4.620490 88.609184
[L_front_hand02_01]
23 86.935165 -11.437475 24.513514 116.959450 3.630817 1.495453 91.046425
24 86.935165 -11.437475 24.513514 116.959450 3.630817 1.495452 91.046425
[L_front_hand03_01]
23 86.637497 -14.123976 -20.424902 -118.420097 -4.656303 -0.152527 90.126129
24 86.637497 -14.123976 -20.424902 -118.420097 -4.656303 -0.152527 90.126129
[L_front_hand01_02]
23 71.020905 -0.000179 0.000030 0.000004 -0.000005 -8.379269 71.020905
24 71.020905 -0.000179 0.000030 0.000004 -0.000005 -8.379269 71.020905
[L_front_hand02_02]
23 71.020927 -0.000119 0.000060 -0.000005 -0.000004 -8.379259 71.020927
24 71.020927 -0.000119 0.000060 -0.000005 -0.000004 -8.379259 71.020927
[L_front_hand03_02]
23 71.020905 -0.000060 0.000060 0.000015 -0.000040 -8.379267 71.020905
24 71.020905 -0.000060 0.000060 0.000015 -0.000040 -8.379267 71.020905
[R_forearm]
23 322.776428 -0.000060 0.000030 0.210714 -0.039949 -80.377007 322.776428
24 322.776428 -0.000060 0.000030 0.210725 -0.039890 -80.409370 322.776428
[R_front_hand]
23 238.847015 -0.006795 2.210259 -1.670900 -0.430101 -93.179565 238.857239
24 238.847015 -0.006795 2.210259 -1.670933 -0.429973 -93.170807 238.857239
[R_weapon_bone]
23 155.664093 0.002503 -0.000030 0.003487 0.001180 -90.988930 155.664078
24 155.664093 0.002503 -0.000030 0.003487 0.001180 -90.988930 155.664078
[R_front_hand01_01]
23 87.624611 14.231146 22.918642 -116.960213 3.496675 -1.324139 91.683487
24 87.624611 14.231146 22.918642 -116.960213 3.496675 -1.324139 91.683487
[R_front_hand02_01]
23 89.356956 14.367283 -19.491137 118.419647 -4.257089 0.609827 92.579636
24 89.356956 14.367283 -19.491137 118.419647 -4.257089 0.609827 92.579636
[R_front_hand03_01]
23 87.286232 -22.307278 -0.143439 -0.387970 -0.231462 4.232001 90.091743
24 87.286232 -22.307278 -0.143439 -0.387970 -0.231462 4.232001 90.091743
[R_front_hand01_02]
23 71.020905 0.000060 0.000119 -0.000005 -0.000020 8.379271 71.020905
24 71.020905 0.000060 0.000119 -0.000005 -0.000020 8.379271 71.020905
[R_front_hand02_02]
23 71.020844 -0.000030 -0.000119 0.000000 -0.000021 8.379271 71.020836
24 71.020844 -0.000030 -0.000119 0.000000 -0.000021 8.379271 71.020836
[R_front_hand03_02]
23 71.020905 0.000000 0.000030 -0.000001 -0.000020 8.379275 71.020905
24 71.020905 0.000000 0.000030 -0.000001 -0.000020 8.379275 71.020905
[null_rope01_connect]
23 328.732483 0.000000 -0.000238 109.814262 -73.268333 -90.044319 328.732483
24 328.732483 0.000000 -0.000238 109.865059 -73.252853 -90.037338 328.732483
[Rope1_Seg01]
23 0.000000 0.000000 0.000000 76.336220 13.636087 80.630493 0.000000
24 0.000000 0.000000 0.000000 76.312523 13.755919 80.665543 0.000000
[Rope1_Seg02]
23 139.999863 -0.000179 0.000000 65.103493 -9.149735 40.975166 139.999863
24 139.999863 -0.000179 0.000000 65.002525 -9.205556 41.058804 139.999863
[Rope1_Seg03]
23 139.999924 0.000060 -0.000060 62.551849 18.864645 21.993967 139.999924
24 139.999924 0.000060 -0.000060 62.475666 18.762070 21.931913 139.999924
[Rope1_Seg04]
23 139.999924 -0.000060 -0.000119 13.047928 42.772430 -10.658501 139.999924
24 139.999924 -0.000060 -0.000119 13.208543 42.853413 -10.552836 139.999924
[Rope1_Seg05]
23 139.999832 0.000119 -0.000060 -0.311705 16.372213 -9.301965 139.999832
24 139.999832 0.000119 -0.000060 -0.308638 16.412800 -9.327171 139.999832
[Rope1_Seg06]
23 139.999954 0.000119 -0.000060 -0.361879 6.748075 -3.894671 139.999954
24 139.999954 0.000119 -0.000060 -0.362981 6.762896 -3.904726 139.999954
[Rope1_Seg07]
23 139.999985 0.000060 0.000000 -0.085183 1.593599 -0.909629 139.999985
24 139.999985 0.000060 0.000000 -0.087066 1.608418 -0.917911 139.999985
[Rope1_Seg09]
23 121.602913 0.000119 -0.000089 -89.793175 -1.359789 0.847147 121.602913
24 121.602913 0.000119 -0.000089 -89.793175 -1.359789 0.847147 121.602913
[L_mid_hand01]
23 103.859421 1.038730 8.195221 104.352036 0.341479 -0.444583 104.187431
24 103.859421 1.038730 8.195221 104.352036 0.341479 -0.444583 104.187431
[L_mid_hand02]
23 105.572853 -4.139662 -10.864139 -135.608444 3.905687 -3.381056 106.211075
24 105.572853 -4.139662 -10.864139 -135.608444 3.905687 -3.381056 106.211075
[L_mid_hand03]
23 104.641464 17.579376 -3.913581 -18.761518 -0.324361 2.942912 106.179977
24 104.641464 17.579376 -3.913581 -18.761515 -0.324361 2.942912 106.179977
[null_rope02_connect]
23 328.732849 0.000179 -0.000119 120.251312 84.662231 -90.614563 328.732849
24 328.732849 0.000179 -0.000119 120.359261 84.656204 -90.517776 328.732849
[Rope2_Seg01]
23 0.000076 0.000111 0.000153 -5.350445 50.141479 107.349358 0.000203
24 0.000076 0.000111 0.000153 -5.335596 50.154392 107.365089 0.000203
[Rope2_Seg02]
23 139.999741 -0.000060 -0.000119 -18.110973 -59.771130 -45.931568 139.999756
24 139.999741 -0.000060 -0.000119 -18.127354 -59.760357 -45.882828 139.999756
[Rope2_Seg03]
23 140.000107 0.000030 0.000000 -21.714695 -10.195768 -24.228117 140.000107
24 140.000107 0.000030 0.000000 -21.736609 -10.210674 -24.250429 140.000107
[Rope2_Seg04]
23 139.999802 0.000000 -0.000060 -21.028761 -11.897676 -35.230923 139.999802
24 139.999802 0.000000 -0.000060 -21.024065 -11.897934 -35.215073 139.999802
[Rope2_Seg05]
23 139.999985 -0.000060 0.000119 -9.703747 2.641853 -29.099546 139.999985
24 139.999985 -0.000060 0.000119 -9.712449 2.633296 -29.114550 139.999985
[Rope2_Seg06]
23 139.999893 -0.000030 -0.000119 -1.618718 3.184043 -11.562068 139.999893
24 139.999893 -0.000030 -0.000119 -1.618856 3.183973 -11.567044 139.999893
[Rope2_Seg07]
23 139.999893 0.000060 -0.000060 -0.239211 1.285744 -4.261752 139.999893
24 139.999893 0.000060 -0.000060 -0.239096 1.284522 -4.255561 139.999893
[Rope2_Seg09]
23 121.338966 0.000089 -0.000060 33.793236 -1.359788 -0.847141 121.338966
24 121.338966 0.000089 -0.000060 33.793236 -1.359788 -0.847141 121.338966
[R_mid_hand01]
23 104.680779 11.144459 -10.335981 -47.384243 2.963521 5.452602 105.778534
24 104.680779 11.144459 -10.335981 -47.384243 2.963521 5.452602 105.778534
[R_mid_hand02]
23 104.070427 2.443552 8.231699 75.626297 -2.250001 1.111093 104.424065
24 104.070427 2.443552 8.231699 75.626297 -2.250001 1.111093 104.424065
[R_mid_hand03]
23 106.028137 -11.221827 -5.996406 -164.381912 2.495983 -6.140520 106.788818
24 106.028137 -11.221827 -5.996406 -164.381927 2.495983 -6.140520 106.788818
[spine02]
23 129.756927 0.001550 0.000119 -3.669210 -2.806141 49.829098 129.756927
24 129.756927 0.001550 0.000119 -3.668029 -2.804075 49.823509 129.756927
[spine03]
23 79.115631 0.000000 -0.000119 5.831884 8.551109 54.704922 79.115631
24 79.115631 0.000000 -0.000119 5.830308 8.534960 54.717266 79.115631
[pelvis]
23 169.435242 0.051022 0.000000 -7.805820 -2.956336 15.082993 169.435257
24 169.435242 0.051022 0.000000 -7.789128 -2.952765 15.048150 169.435257
[null_rope03_connect]
23 -1.257226 -2.466202 137.391083 145.014038 -84.084572 -134.612305 137.418976
24 -1.257226 -2.466202 137.391083 145.024261 -84.095482 -134.601456 137.418976
[null_rope04_connect]
23 -1.259640 -2.480268 -137.844437 145.014038 -84.084572 -134.612305 137.872513
24 -1.259640 -2.480268 -137.844437 145.024261 -84.095482 -134.601456 137.872513
[Rope3_Seg01]
23 0.000010 0.000038 -0.000114 -168.073654 73.003029 -104.566505 0.000121
24 0.000010 0.000038 -0.000114 -168.095764 73.009193 -104.587166 0.000121
[Rope3_Seg02]
23 139.999924 -0.000119 0.000060 -11.455169 -20.271261 12.242272 139.999924
24 139.999924 -0.000119 0.000060 -11.445129 -20.252962 12.228055 139.999924
[Rope3_Seg03]
23 139.999924 -0.000119 0.000119 -21.357130 -46.973354 24.299522 139.999924
24 139.999924 -0.000119 0.000119 -21.361305 -46.964535 24.296267 139.999924
[Rope3_Seg04]
23 139.999924 0.000119 0.000000 -0.329433 -22.746288 4.254364 139.999924
24 139.999924 0.000119 0.000000 -0.328797 -22.747978 4.250885 139.999924
[Rope3_Seg05]
23 139.999924 -0.000238 0.000060 8.908524 -63.085533 17.150539 139.999924
24 139.999924 -0.000238 0.000060 8.912887 -63.072235 17.135849 139.999924
[Rope3_Seg06]
23 139.999893 -0.000119 -0.000060 11.455635 -39.719162 26.214640 139.999893
24 139.999893 -0.000119 -0.000060 11.453746 -39.736874 26.225943 139.999893
[Rope3_Seg07]
23 139.999771 0.000060 -0.000119 2.870489 -5.003778 5.839079 139.999771
24 139.999771 0.000060 -0.000119 2.871205 -5.006870 5.841953 139.999771
[Rope3_Seg08]
23 139.999985 -0.000060 0.000000 1.455428 -1.911400 2.482628 139.999985
24 139.999985 -0.000060 0.000000 1.456353 -1.912929 2.484573 139.999985
[Rope3_Seg09]
23 90.185997 -0.000179 -0.000060 89.793228 -1.359877 -0.847183 90.185997
24 90.185997 -0.000179 -0.000060 89.793228 -1.359877 -0.847183 90.185997
[R_rear_hand01]
23 103.366196 -6.073594 -10.757982 -156.049316 6.070419 -2.795869 104.101845
24 103.366196 -6.073594 -10.757982 -156.049316 6.070419 -2.795869 104.101845
[R_rear_hand02]
23 100.509819 12.039542 -7.992327 -38.708435 1.958051 5.461186 101.543350
24 100.509819 12.039542 -7.992327 -38.708424 1.958050 5.461185 101.543350
[R_rear_hand03]
23 101.539970 5.215704 5.435467 84.307625 -2.361032 4.099037 101.819031
24 101.539970 5.215704 5.435467 84.307632 -2.361033 4.099037 101.819031
[Rope4_Seg01]
23 0.000002 0.000043 -0.000186 83.624771 76.607277 -77.252312 0.000191
24 0.000002 0.000041 -0.000188 83.592422 76.604187 -77.284637 0.000192
[Rope4_Seg02]
23 139.999985 0.000060 0.000119 5.232024 5.984853 -15.169626 139.999985
24 139.999985 0.000060 0.000119 5.228040 5.980470 -15.159972 139.999985
[Rope4_Seg03]
23 139.999924 0.000000 -0.000238 4.731163 11.914362 -50.378983 139.999924
24 139.999924 0.000000 -0.000238 4.727882 11.919318 -50.390308 139.999924
[Rope4_Seg04]
23 139.999985 0.000000 0.000119 -2.991767 2.931171 -35.439777 139.999985
24 139.999985 0.000000 0.000119 -2.993548 2.935609 -35.450382 139.999985
[Rope4_Seg05]
23 139.999802 -0.000060 -0.000119 -9.722192 6.500248 -32.438503 139.999802
24 139.999802 -0.000060 -0.000119 -9.728854 6.502935 -32.447075 139.999802
[Rope4_Seg06]
23 139.999924 0.000000 0.000060 -21.890467 14.937603 -47.499584 139.999924
24 139.999924 0.000000 0.000060 -21.894938 14.934205 -47.510681 139.999924
[Rope4_Seg07]
23 139.999802 0.000000 0.000000 -5.452209 9.638856 -14.210251 139.999802
24 139.999802 0.000000 0.000000 -5.448641 9.634485 -14.204668 139.999802
[Rope4_Seg08]
23 139.999924 0.000000 0.000119 -2.359197 2.443428 -3.027601 139.999924
24 139.999924 0.000000 0.000119 -2.359197 2.443429 -3.027602 139.999924
[Rope4_Seg09]
23 90.185791 0.000060 0.000060 -135.617828 2.228885 0.850567 90.185791
24 90.185791 0.000060 0.000060 -135.617828 2.228885 0.850567 90.185791
[L_rear_hand01]
23 101.696655 -8.392275 -7.654577 -38.746349 0.246096 177.290207 102.329041
24 101.696655 -8.392275 -7.654577 -38.746338 0.246096 177.290207 102.329041
[L_rear_hand02]
23 102.726799 -1.568258 5.773216 84.314880 -1.139137 176.250763 102.900848
24 102.726799 -1.568258 5.773216 84.314865 -1.139136 176.250763 102.900848
[L_rear_hand03]
23 104.552910 9.721220 -10.420293 -155.747955 -4.630845 179.564758 105.519653
24 104.552910 9.721220 -10.420293 -155.747955 -4.630845 179.564758 105.519653
